<?xml version="1.0" encoding="UTF-8"?><svg id="Calque_1" xmlns="http://www.w3.org/2000/svg" viewBox="0 0 822.62 333.25"><defs><style>.cls-1{fill:#1d1d1b;}</style></defs><path class="cls-1" d="M30.59,96.78c-.38,25.09,1.33,28.14,16.15,29.39,2.09.18,2.85.54,2.85,1.79s-1.33,2.15-3.23,2.15c-1.14,0-3.42-.18-6.27-.36-1.71,0-3.42,0-17.1-.36-10.45.18-11.97.18-14.44.54-2.66.36-4.56.54-5.51.54-1.33,0-2.28-.72-2.28-1.79s.95-1.79,3.04-2.15c10.26-1.79,11.97-6.09,12.54-31.72v-53.05c.19-23.48-1.9-28.14-13.87-29.03-1.71-.18-2.47-.72-2.47-1.61,0-1.26,1.52-2.15,3.8-2.15.95,0,2.85.18,4.56.36,4.18.54,6.08.72,9.88.72,6.08,0,7.03,0,17.1-.9,2.28-.18,4.94-.36,8.17-.36,27.74,0,45.03,12.37,45.03,32.26,0,9.5-4.56,18.64-12.54,24.91-6.84,5.38-17.48,8.96-26.03,8.96-7.6,0-15.2-1.97-15.2-3.94,0-.72.57-1.08,1.52-1.08.38,0,1.33.18,2.09.36,2.09.36,4.37.54,6.84.54,17.86,0,29.45-9.86,29.45-25.27,0-17.56-15.77-30.47-37.62-30.47-3.04,0-4.94.72-5.7,2.33q-.57.9-.76,6.45v72.94Z"/><path class="cls-1" d="M126.31,80.11c0-7.35-.57-9.68-2.85-12.54-3.04-3.94-9.32-6.63-15.21-6.63-8.37,0-12.74,3.58-12.74,10.04,0,1.97.19,3.23,1.33,6.45.38,1.43.57,2.33.57,2.87,0,1.07-.76,1.61-1.71,1.61-1.71,0-5.33-.72-8.37-1.79-2.09-.72-3.23-2.15-3.23-3.76,0-3.76,3.8-10.04,7.99-13.62,5.14-4.12,13.31-6.81,20.92-6.81,9.32,0,18.83,3.76,23.01,8.96,2.09,2.69,3.04,6.45,3.04,11.29v34.41c0,7.71.38,9.32,2.47,12.01,1.52,1.97,4.18,3.05,6.85,3.05q1.14,0,4.18-.72c.95,0,1.52.72,1.52,1.43-.19,1.97-7.42,4.66-12.55,4.66-5.89,0-9.32-2.33-13.88-8.78-9.89,6.81-16.73,9.5-24.91,9.5-11.79,0-19.21-6.27-19.21-16.31,0-8.6,5.51-14.7,17.49-19,6.09-2.15,12.93-3.58,25.29-5.38v-10.93ZM126.31,94.45c-7.8.72-14.26,2.33-20.92,5.38-6.46,2.87-9.51,7.35-9.51,13.44,0,7.89,5.51,13.08,13.69,13.08,5.51,0,11.6-2.51,14.45-5.91,1.71-1.97,2.28-4.12,2.28-8.6v-17.38Z"/><path class="cls-1" d="M183.43,109.14c.77,13.26,2.31,15.05,13.47,17.03,1.92.18,2.7.9,2.7,1.79,0,1.07-.96,1.97-2.12,1.97-.39,0-1.35-.18-2.31-.36l-5-.18h-6.74c-9.24,0-15.78,0-16.55.36-1.73.18-3.27.36-3.66.36-1.35,0-2.5-.9-2.5-1.79,0-1.08.77-1.61,2.69-2.15,7.12-2.33,7.31-3.05,7.12-13.98V22.58c0-4.12,0-4.3-.38-5.91-.58-2.87-3.27-4.66-6.35-4.66-.39,0-1.54,0-3.27.18h-.77c-1.73,0-2.69-.54-2.69-1.61,0-.72.77-1.25,2.5-1.79,12.32-3.76,13.09-4.12,20.78-8.06.77-.36,1.54-.72,1.92-.72.96,0,1.54,1.43,1.35,3.58l-.19,2.87v102.69Z"/><path class="cls-1" d="M304.75,67.92c6.79-8.06,15.09-12.01,24.71-12.01,10.37,0,16.6,3.76,22.45,13.26,7.17-8.96,15.47-13.26,26.03-13.26,16.22,0,26.03,10.75,26.03,28.67v28.32c.38,9.86,2.08,11.83,11.88,13.8,1.7.18,2.27.72,2.27,1.79s-.76,1.61-2.08,1.61l-3.02-.18c-2.45-.36-5.28-.54-9.05-.54-7.55,0-13.58.18-15.47.36-1.32.18-2.26.18-2.83.18-1.32,0-2.45-.72-2.45-1.61,0-.72.56-1.25,1.51-1.61,6.04-1.97,6.79-3.23,6.79-10.39v-28.67c0-8.06-1.13-12.72-4.53-17.03-3.77-5.2-9.05-7.88-15.09-7.88-9.05,0-18.3,5.91-18.3,11.47,0,.72,0,1.43.19,2.33.38,1.61.38,2.69.57,3.23v34.23c0,8.96,2.07,11.29,11.32,12.54,2.26.18,3.02.72,3.02,1.79s-.76,1.61-2.64,1.61l-3.02-.18c-3.77-.36-6.41-.54-8.3-.54-9.24,0-13.96.18-16.22.54-1.13.18-2.08.18-2.83.18-1.13,0-2.26-.72-2.26-1.43,0-.9.19-1.08,4.53-2.51,3.39-1.79,3.96-3.22,3.77-10.75v-32.44c0-12.37-7.17-19.89-18.86-19.89-10.75,0-18.11,5.91-18.11,14.52v37.64c.56,8.24,3.02,10.75,11.5,11.65,1.89.18,2.83.9,2.83,1.97,0,.9-.94,1.43-2.26,1.43-.76,0-2.27-.18-4.34-.36-1.7-.36-5.85-.36-14.9-.36l-8.49.18c-1.51.18-2.83.36-3.58.36-1.13,0-2.08-.72-2.08-1.43,0-1.26.38-1.43,4.91-2.87,2.64-.9,3.58-3.41,3.77-9.68v-39.25c0-9.68-1.7-11.29-10.75-10.93-1.13,0-2.07-.54-2.07-1.43,0-.72.56-1.25,2.07-1.61,8.3-2.69,14.9-5.2,17.73-6.81,3.02-1.79,3.59-1.97,4.34-1.97,1.13,0,1.32.36,1.32,3.4v10.57Z"/><path class="cls-1" d="M449.86,115.06c-.2,9.14,1.4,10.57,12.36,11.47,1.99.36,3.39,1.07,3.39,2.15,0,.9-1,1.61-2.59,1.61-1.19,0-3.39-.18-6.38-.36-1-.18-10.76-.36-12.96-.36-2.99,0-7.58.36-10.17.54-1.6.18-2.79.36-3.59.36-1.4,0-2.59-.72-2.59-1.61,0-1.07.6-1.43,3.59-2.33,4.78-2.15,5.58-3.94,5.58-10.93v-38.17c.2-9.5-1.4-11.47-9.17-11.47-1.79,0-2.59-.54-2.79-1.25-.2-1.07.8-1.61,4.98-2.87,2.79-.9,13.75-5.2,13.95-5.56,3.39-1.61,4.58-2.15,5.18-2.15q1.2,0,1.2,16.31v44.62ZM448.86,23.48q3.19,4.48,3.19,5.56c0,2.87-6.18,9.14-8.77,9.14s-8.37-6.27-8.37-9.14c0-.9,1-2.33,3.79-5.56,2.39-2.87,3.59-3.58,5.38-3.58s2.79.9,4.78,3.58ZM452.05,28.39c0,5.4-3.84,9.78-8.57,9.78s-8.57-4.38-8.57-9.78,3.84-9.78,8.57-9.78,8.57,4.38,8.57,9.78Z"/><path class="cls-1" d="M498.39,69.89c8.67-9.86,16.2-13.98,25.81-13.98s19.22,5.2,24.3,13.44c3.2,5.2,4.52,12.01,4.52,22.04v20.97c-.19,10.93,1.32,12.9,11.87,13.98,1.51.36,2.45.9,2.45,1.79,0,1.25-1.32,1.97-3.2,1.97l-3.39-.18c-2.26-.36-4.9-.36-12.62-.36l-7.72.18h-3.39l-2.83.18c-1.13,0-1.7-.54-1.7-1.61,0-1.25.19-1.25,4.33-2.33,2.64-.72,3.58-2.15,3.58-6.27v-30.29c0-8.6-1.13-12.9-4.52-17.2-3.96-5.2-10.74-8.24-17.9-8.24-6.22,0-12.06,2.51-16.58,6.99-2.26,2.33-3.01,4.12-3.01,7.35v33.15c-.38,12.01,1.13,13.62,13,15.05,2.07.18,3.01.72,3.01,1.79,0,.9-.94,1.61-2.07,1.61-.94,0-2.64-.18-4.71-.36-1.51-.18-3.01-.18-7.35-.18-13.94,0-16.2,0-22.04.54h-.38c-1.32,0-1.88-.54-1.88-1.25,0-.9.56-1.44,1.7-1.79,6.22-1.43,8.29-4.84,8.1-13.44v-37.28c-.38-10.04-1.32-10.93-11.31-10.57-1.51,0-2.45-.54-2.45-1.61,0-.9.75-1.25,2.26-1.61,8.48-1.97,10.55-2.87,20.35-7.53.94-.54,1.7-.72,2.26-.72,1.32,0,1.51.54,1.51,5.91v9.86Z"/><path class="cls-1" d="M641.59,93.91c0,21.51-16.85,37.81-39.07,37.81s-38.17-15.59-38.17-37.63c0-11.11,5.91-23.48,14.34-29.93,6.81-5.2,15.95-8.24,24.55-8.24,21.33,0,38.35,17.03,38.35,37.99ZM579.7,88.71c0,22.4,9.56,39.25,26.4,39.25,14.16,0,20.13-11.47,20.13-29.75,0-22.76-8.66-38.89-25.15-38.89-14.7,0-21.39,11.83-21.39,29.39Z"/><path class="cls-1" d="M276.21,92.12c0,21.51-16.85,37.81-39.07,37.81s-38.17-15.59-38.17-37.63c0-11.11,5.91-23.48,14.34-29.93,6.81-5.2,15.95-8.24,24.55-8.24,21.33,0,38.35,17.03,38.35,37.99ZM214.32,86.92c0,22.4,9.56,39.25,26.4,39.25,14.16,0,20.13-11.47,20.13-29.75,0-22.76-8.66-38.89-25.15-38.89-14.7,0-21.39,11.83-21.39,29.39Z"/><path class="cls-1" d="M170.36,204.94c-.19-15.95-3.55-21.15-14.58-22.58-2.62-.18-3.74-.72-3.74-1.97s1.31-1.97,3.55-1.97c.75,0,2.62,0,4.67.18,1.68.18,4.11.18,6.91.18q7.66,0,21.31-.72c3.36-.18,6.54-.18,9.35-.18,13.08,0,22.24,1.97,29.9,6.63,8.22,5.02,13.27,13.26,13.27,22.22,0,5.91-2.06,11.65-5.98,16.31-2.8,3.23-3.18,3.58-10.09,7.88-.75.54-1.31,1.08-1.31,1.44,0,.71.19.71,4.67,1.79,14.02,3.58,23.17,15.23,23.17,29.57,0,21.87-18.32,36.92-45.23,36.92-3.36,0-8.04-.18-14.02-.71-6.92-.72-8.78-.72-14.2-.72-5.98,0-10.65.18-12.15.36-2.8.36-5.05.54-6.17.54-1.68,0-2.62-.72-2.62-1.97,0-1.07.75-1.61,2.8-1.79,8.41-1.08,9.91-4.48,10.47-23.83v-67.56ZM205.68,231.46c14.58,0,22.99-7.17,22.99-19.36,0-7.53-3.74-15.95-9.34-20.79-5.8-5.02-15.7-8.42-24.67-8.42-8.41,0-10.28,1.61-10.28,8.78v35.13c0,4.12.93,4.84,6.17,4.66h15.14ZM189.42,237.73c-4.3-.18-5.05.36-5.05,3.4v40.32c.19,8.06.19,8.24,1.5,9.86,2.43,2.87,9.9,4.48,21.68,4.48,10.09,0,16.26-1.79,21.31-6.09,5.61-4.84,9.16-13.08,9.16-21.51,0-12.01-6.35-22.58-16.26-27.06-6.17-2.87-9.16-3.4-19.44-3.4h-12.9Z"/><path class="cls-1" d="M284.66,240.87c7.14-10.57,14.1-15.95,20.28-15.95,2.9,0,4.25.71,10.04,5.38,2.12,1.61,2.51,2.15,2.51,3.23,0,1.97-5.79,8.42-7.53,8.42-.58,0-1.35-.36-4.05-2.15-3.09-1.79-5.02-2.51-7.72-2.51-7.72,0-13.52,5.73-13.52,13.26v31.18c0,11.29,2.7,13.98,14.29,14.34,1.93.18,3.09.9,3.09,1.79,0,1.07-1.16,1.79-2.7,1.79-.39,0-2.12-.18-4.44-.36-1.16-.18-6.95-.36-12.36-.36-5.79,0-12.55.18-14.29.54-1.74.18-3.09.36-3.47.36-1.35,0-2.51-.72-2.51-1.79s.77-1.61,2.9-1.97c5.79-1.43,6.57-2.69,6.57-13.26v-34.59c0-6.45-.19-7.53-1.54-9.5-1.74-2.15-6.18-3.76-9.66-3.58l-2.51.18c-1.16,0-2.12-.54-2.12-1.44,0-1.25.97-1.97,3.48-2.15,6.95-1.25,15.83-4.3,21.05-7.71.77-.36,1.74-.71,2.32-.71,1.54,0,1.93.9,1.93,4.66v12.9Z"/><path class="cls-1" d="M555.77,288.27c-5.93,4.66-7.65,5.92-10.14,7.53-5.36,3.22-12.63,5.38-18.75,5.38-18.94,0-33.28-15.59-33.28-36.38,0-21.86,17.6-39.43,39.41-39.43,8.23,0,14.73,1.79,22.76,6.27v-34.59c-.19-13.08-2.68-16.31-12.82-15.95-1.53,0-2.29-.54-2.29-1.61s.77-1.79,2.68-1.97c6.12-.72,15.11-3.94,22-8.07.58-.36,1.34-.54,1.91-.54,1.15,0,1.15.18,1.34,3.4v109.32q0,6.81.76,8.42c1.15,2.15,3.64,3.4,7.27,3.4.57,0,1.72,0,3.06-.18h.96c1.15,0,1.72.54,1.72,1.44,0,1.43-1.15,2.15-3.44,2.33-8.8.9-17.02,2.33-18.17,3.23-1.15.54-2.3.9-2.87.9-1.53,0-2.1-1.25-2.1-4.3v-8.6ZM555.77,248.84c0-6.27-.96-8.78-4.21-11.83-5.55-5.02-14.16-8.24-22.19-8.24-14.73,0-24.87,11.83-24.87,29.03,0,19.35,13.96,35.66,30.8,35.66,5.74,0,12.24-2.33,16.26-5.73,3.25-2.87,4.21-5.2,4.21-10.04v-28.85Z"/><path class="cls-1" d="M745.31,300.82c-4.85-3.58-6.16-5.73-6.16-9.86,0-6.45,3.92-12.9,10.64-17.39-8.21-4.66-12.13-11.65-12.13-21.33,0-15.59,11.76-26.88,27.99-26.88,6.16,0,14.55,2.33,19.59,5.38,2.61,1.61,3.36,1.97,4.48,1.97,2.43,0,7.47-1.97,10.08-3.94,1.69-1.56,1.47-1.68,3.36-6.09.29-.72.75-1.08,1.31-1.08,1.12,0,1.68.9,1.68,2.15,0,1.97-1.48,9.79-3.54,13.08-1.35,2.15-2.81,3.54-5.79,4.66-1.31.36-1.68.72-1.68,1.44,0,.36.19,1.07.37,1.79.37,1.25.75,5.2.75,6.99,0,13.98-12.87,25.27-28.74,25.27-2.42,0-7.09-.54-10.45-1.08-1.12-.18-2.05-.36-2.8-.36-3.92,0-8.21,5.02-8.21,9.5,0,3.23,2.43,5.92,6.53,6.99,2.8.72,6.72,1.08,15.49,1.25,15.49.36,20.53,1.08,25,3.41,5.04,2.51,7.84,6.99,7.84,12.54,0,13.44-15.86,24.02-36.01,24.02s-32.65-6.99-32.65-17.2c0-6.99,4.48-11.83,13.06-14.7v-.54ZM740.83,314.44c0,9.68,8.4,15.23,22.95,15.23,16.23,0,28.73-6.99,28.73-15.95,0-5.38-3.92-7.88-12.87-8.24-16.05-.54-25.94-1.43-30.23-2.69-5.97,2.51-8.58,6.09-8.58,11.65ZM750.62,248.84c0,14.16,8.31,24.73,18.57,24.73s14.07-8.06,14.07-20.43c0-14.51-8.54-24.76-19.37-24.76-9.14,0-13.28,8.99-13.28,20.46Z"/><path class="cls-1" d="M424.65,239.34c8.67-9.86,16.2-13.98,25.81-13.98s19.22,5.2,24.3,13.44c3.2,5.2,4.52,12.01,4.52,22.04v20.97c-.19,10.93,1.32,12.9,11.87,13.98,1.51.36,2.45.9,2.45,1.79,0,1.25-1.32,1.97-3.2,1.97l-3.39-.18c-2.26-.36-4.9-.36-12.62-.36l-7.72.18h-3.39l-2.83.18c-1.13,0-1.7-.54-1.7-1.61,0-1.25.19-1.25,4.33-2.33,2.64-.72,3.58-2.15,3.58-6.27v-30.29c0-8.6-1.13-12.9-4.52-17.2-3.96-5.2-10.74-8.24-17.9-8.24-6.22,0-12.06,2.51-16.58,6.99-2.26,2.33-3.01,4.12-3.01,7.35v33.15c-.38,12.01,1.13,13.62,13,15.05,2.07.18,3.01.72,3.01,1.79,0,.9-.94,1.61-2.07,1.61-.94,0-2.64-.18-4.71-.36-1.51-.18-3.01-.18-7.35-.18-13.94,0-16.2,0-22.04.54h-.38c-1.32,0-1.88-.54-1.88-1.25,0-.9.56-1.44,1.7-1.79,6.22-1.43,8.29-4.84,8.1-13.44v-37.28c-.38-10.04-1.32-10.93-11.31-10.57-1.51,0-2.45-.54-2.45-1.61,0-.9.75-1.25,2.26-1.61,8.48-1.97,10.55-2.87,20.35-7.53.94-.54,1.7-.72,2.26-.72,1.32,0,1.51.54,1.51,5.91v9.86Z"/><path class="cls-1" d="M663.05,239.34c8.67-9.86,16.2-13.98,25.81-13.98s19.22,5.2,24.3,13.44c3.2,5.2,4.52,12.01,4.52,22.04v20.97c-.19,10.93,1.32,12.9,11.87,13.98,1.51.36,2.45.9,2.45,1.79,0,1.25-1.32,1.97-3.2,1.97l-3.39-.18c-2.26-.36-4.9-.36-12.62-.36l-7.72.18h-3.39l-2.83.18c-1.13,0-1.7-.54-1.7-1.61,0-1.25.19-1.25,4.33-2.33,2.64-.72,3.58-2.15,3.58-6.27v-30.29c0-8.6-1.13-12.9-4.52-17.2-3.96-5.2-10.74-8.24-17.9-8.24-6.22,0-12.06,2.51-16.58,6.99-2.26,2.33-3.01,4.12-3.01,7.35v33.15c-.38,12.01,1.13,13.62,13,15.05,2.07.18,3.01.72,3.01,1.79,0,.9-.94,1.61-2.07,1.61-.94,0-2.64-.18-4.71-.36-1.51-.18-3.01-.18-7.35-.18-13.94,0-16.2,0-22.04.54h-.38c-1.32,0-1.88-.54-1.88-1.25,0-.9.56-1.44,1.7-1.79,6.22-1.43,8.29-4.84,8.1-13.44v-37.28c-.38-10.04-1.32-10.93-11.31-10.57-1.51,0-2.45-.54-2.45-1.61,0-.9.75-1.25,2.26-1.61,8.48-1.97,10.55-2.87,20.35-7.53.94-.54,1.7-.72,2.26-.72,1.32,0,1.51.54,1.51,5.91v9.86Z"/><path class="cls-1" d="M364.89,249.56c0-7.35-.57-9.68-2.85-12.54-3.04-3.94-9.32-6.63-15.21-6.63-8.37,0-12.74,3.58-12.74,10.04,0,1.97.19,3.23,1.33,6.45.38,1.43.57,2.33.57,2.87,0,1.07-.76,1.61-1.71,1.61-1.71,0-5.33-.72-8.37-1.79-2.09-.72-3.23-2.15-3.23-3.76,0-3.76,3.8-10.04,7.99-13.62,5.14-4.12,13.31-6.81,20.92-6.81,9.32,0,18.83,3.76,23.01,8.96,2.09,2.69,3.04,6.45,3.04,11.29v34.41c0,7.71.38,9.32,2.47,12.01,1.52,1.97,4.18,3.05,6.85,3.05q1.14,0,4.18-.72c.95,0,1.52.72,1.52,1.43-.19,1.97-7.42,4.66-12.55,4.66-5.89,0-9.32-2.33-13.88-8.78-9.89,6.81-16.73,9.5-24.91,9.5-11.79,0-19.21-6.27-19.21-16.31,0-8.6,5.51-14.7,17.49-19,6.09-2.15,12.93-3.58,25.29-5.38v-10.93ZM364.89,263.9c-7.8.72-14.26,2.33-20.92,5.38-6.46,2.87-9.51,7.35-9.51,13.44,0,7.89,5.51,13.08,13.69,13.08,5.51,0,11.6-2.51,14.45-5.91,1.71-1.97,2.28-4.12,2.28-8.6v-17.38Z"/><path class="cls-1" d="M614.27,284.15c-.2,9.14,1.4,10.57,12.36,11.47,1.99.36,3.39,1.07,3.39,2.15,0,.9-1,1.61-2.59,1.61-1.19,0-3.39-.18-6.38-.36-1-.18-10.76-.36-12.96-.36-2.99,0-7.58.36-10.17.54-1.6.18-2.79.36-3.59.36-1.4,0-2.59-.72-2.59-1.61,0-1.07.6-1.43,3.59-2.33,4.78-2.15,5.58-3.94,5.58-10.93v-38.17c.2-9.5-1.4-11.47-9.17-11.47-1.79,0-2.59-.54-2.79-1.25-.2-1.07.8-1.61,4.98-2.87,2.79-.9,13.75-5.2,13.95-5.56,3.39-1.61,4.58-2.15,5.18-2.15q1.2,0,1.2,16.31v44.62ZM613.27,192.57q3.19,4.48,3.19,5.56c0,2.87-6.18,9.14-8.77,9.14s-8.37-6.27-8.37-9.14c0-.9,1-2.33,3.79-5.56,2.39-2.87,3.59-3.58,5.38-3.58s2.79.9,4.78,3.58ZM616.46,197.49c0,5.4-3.84,9.78-8.57,9.78s-8.57-4.38-8.57-9.78,3.84-9.78,8.57-9.78,8.57,4.38,8.57,9.78Z"/><path class="cls-1" d="M802.42,109.48l-24.21-17.49c-.82-.59-1.93-.59-2.74,0l-24.12,17.62c-1.83,1.33-4.29-.45-3.6-2.6l9.15-28.43c.31-.96-.04-2.02-.85-2.61l-24.21-17.49c-1.83-1.32-.9-4.22,1.36-4.23l29.87-.08c1.01,0,1.91-.66,2.22-1.62l9.15-28.43c.69-2.15,3.74-2.16,4.44-.01l9.31,28.39c.32.96,1.21,1.61,2.22,1.61l29.87-.08c2.26,0,3.21,2.88,1.38,4.22l-24.12,17.62c-.82.6-1.16,1.65-.84,2.61l9.31,28.39c.7,2.15-1.75,3.94-3.58,2.62Z"/></svg>