<?xml version="1.0" encoding="UTF-8"?><svg id="Calque_1" xmlns="http://www.w3.org/2000/svg" viewBox="0 0 1027.64 181.38"><defs><style>.cls-1{fill:#1d1d1b;}</style></defs><path class="cls-1" d="M21.95,133.31c-.27,18,.95,20.19,11.59,21.09,1.5.13,2.04.39,2.04,1.29s-.95,1.54-2.32,1.54c-.82,0-2.45-.13-4.5-.26-1.23,0-2.45,0-12.27-.26-7.5.13-8.59.13-10.36.39-1.91.26-3.27.39-3.95.39-.95,0-1.64-.51-1.64-1.29s.68-1.29,2.18-1.54c7.36-1.29,8.59-4.37,9-22.76v-38.06c.14-16.85-1.36-20.19-9.95-20.83-1.23-.13-1.77-.51-1.77-1.16,0-.9,1.09-1.54,2.73-1.54.68,0,2.04.13,3.27.26,3,.39,4.36.51,7.09.51,4.36,0,5.04,0,12.27-.64,1.64-.13,3.54-.26,5.86-.26,19.9,0,32.31,8.87,32.31,23.15,0,6.81-3.27,13.37-9,17.87-4.91,3.86-12.54,6.43-18.68,6.43-5.45,0-10.91-1.41-10.91-2.83,0-.51.41-.77,1.09-.77.27,0,.95.13,1.5.26,1.5.26,3.14.39,4.91.39,12.81,0,21.13-7.07,21.13-18.13,0-12.6-11.32-21.86-26.99-21.86-2.18,0-3.54.51-4.09,1.67q-.41.64-.54,4.63v52.33Z"/><path class="cls-1" d="M90.63,121.36c0-5.27-.41-6.94-2.05-9-2.18-2.83-6.69-4.76-10.92-4.76-6,0-9.14,2.57-9.14,7.2,0,1.41.14,2.31.95,4.63.27,1.03.41,1.67.41,2.06,0,.77-.55,1.16-1.23,1.16-1.23,0-3.82-.51-6-1.29-1.5-.51-2.32-1.54-2.32-2.7,0-2.7,2.73-7.2,5.73-9.77,3.68-2.96,9.55-4.89,15.01-4.89,6.69,0,13.51,2.7,16.51,6.43,1.5,1.93,2.18,4.63,2.18,8.1v24.69c0,5.53.27,6.69,1.77,8.62,1.09,1.41,3,2.19,4.91,2.19q.82,0,3-.51c.68,0,1.09.51,1.09,1.03-.14,1.41-5.32,3.34-9,3.34-4.23,0-6.69-1.67-9.96-6.3-7.1,4.89-12.01,6.81-17.87,6.81-8.46,0-13.78-4.5-13.78-11.7,0-6.17,3.96-10.54,12.55-13.63,4.37-1.54,9.28-2.57,18.15-3.86v-7.84ZM90.63,131.64c-5.59.51-10.23,1.67-15.01,3.86-4.64,2.06-6.82,5.27-6.82,9.64,0,5.66,3.96,9.39,9.82,9.39,3.96,0,8.32-1.8,10.37-4.24,1.23-1.41,1.64-2.96,1.64-6.17v-12.47Z"/><path class="cls-1" d="M131.61,142.19c.55,9.52,1.66,10.8,9.67,12.22,1.38.13,1.93.64,1.93,1.29,0,.77-.69,1.41-1.52,1.41-.28,0-.97-.13-1.66-.26l-3.59-.13h-4.83c-6.63,0-11.32,0-11.88.26-1.24.13-2.35.26-2.62.26-.97,0-1.79-.64-1.79-1.29,0-.77.55-1.16,1.93-1.54,5.11-1.67,5.25-2.19,5.11-10.03v-64.29c0-2.96,0-3.09-.28-4.24-.41-2.06-2.35-3.34-4.56-3.34-.28,0-1.1,0-2.35.13h-.55c-1.24,0-1.93-.39-1.93-1.16,0-.51.55-.9,1.8-1.29,8.84-2.7,9.39-2.96,14.91-5.79.55-.26,1.1-.51,1.38-.51.69,0,1.1,1.03.97,2.57l-.14,2.06v73.68Z"/><path class="cls-1" d="M218.65,112.61c4.87-5.79,10.83-8.62,17.73-8.62,7.44,0,11.91,2.7,16.11,9.52,5.14-6.43,11.1-9.52,18.68-9.52,11.64,0,18.68,7.72,18.68,20.57v20.32c.27,7.07,1.49,8.49,8.53,9.9,1.22.13,1.63.51,1.63,1.29s-.54,1.16-1.49,1.16l-2.17-.13c-1.76-.26-3.79-.39-6.5-.39-5.41,0-9.75.13-11.1.26-.95.13-1.62.13-2.03.13-.95,0-1.76-.51-1.76-1.16,0-.51.41-.9,1.08-1.16,4.33-1.41,4.87-2.31,4.87-7.46v-20.57c0-5.79-.81-9.13-3.25-12.22-2.71-3.73-6.5-5.66-10.83-5.66-6.5,0-13.13,4.24-13.13,8.23,0,.51,0,1.03.13,1.67.27,1.16.27,1.93.41,2.31v24.56c0,6.43,1.49,8.1,8.12,9,1.62.13,2.17.51,2.17,1.29s-.54,1.16-1.89,1.16l-2.17-.13c-2.71-.26-4.6-.39-5.95-.39-6.63,0-10.02.13-11.64.39-.81.13-1.49.13-2.03.13-.81,0-1.62-.51-1.62-1.03,0-.64.14-.77,3.25-1.8,2.43-1.29,2.84-2.31,2.71-7.71v-23.27c0-8.87-5.14-14.27-13.53-14.27-7.71,0-12.99,4.24-12.99,10.42v27c.41,5.91,2.17,7.72,8.25,8.36,1.35.13,2.03.64,2.03,1.41,0,.64-.68,1.03-1.62,1.03-.54,0-1.63-.13-3.11-.26-1.22-.26-4.2-.26-10.69-.26l-6.09.13c-1.08.13-2.03.26-2.57.26-.81,0-1.49-.51-1.49-1.03,0-.9.27-1.03,3.52-2.06,1.89-.64,2.57-2.44,2.71-6.94v-28.16c0-6.94-1.22-8.1-7.71-7.84-.81,0-1.49-.39-1.49-1.03,0-.51.41-.9,1.49-1.16,5.96-1.93,10.69-3.73,12.72-4.89,2.17-1.29,2.57-1.41,3.11-1.41.81,0,.95.26.95,2.44v7.59Z"/><path class="cls-1" d="M322.77,146.43c-.14,6.56,1,7.59,8.87,8.23,1.43.26,2.43.77,2.43,1.54,0,.64-.71,1.16-1.86,1.16-.86,0-2.43-.13-4.58-.26-.71-.13-7.72-.26-9.3-.26-2.15,0-5.44.26-7.29.39-1.15.13-2,.26-2.57.26-1,0-1.86-.51-1.86-1.16,0-.77.43-1.03,2.57-1.67,3.43-1.54,4-2.83,4-7.84v-27.39c.14-6.81-1-8.23-6.58-8.23-1.29,0-1.86-.39-2-.9-.14-.77.57-1.16,3.58-2.06,2-.64,9.87-3.73,10.01-3.99,2.43-1.16,3.29-1.54,3.72-1.54q.86,0,.86,11.7v32.02ZM322.06,80.72q2.29,3.21,2.29,3.99c0,2.06-4.43,6.56-6.29,6.56s-6.01-4.5-6.01-6.56c0-.64.71-1.67,2.72-3.99,1.72-2.06,2.57-2.57,3.86-2.57s2,.64,3.43,2.57ZM324.35,84.25c0,3.87-2.75,7.02-6.15,7.02s-6.15-3.14-6.15-7.02,2.75-7.02,6.15-7.02,6.15,3.14,6.15,7.02Z"/><path class="cls-1" d="M357.6,114.03c6.22-7.07,11.63-10.03,18.52-10.03s13.79,3.73,17.44,9.64c2.3,3.73,3.25,8.61,3.25,15.82v15.04c-.14,7.84.95,9.26,8.51,10.03,1.08.26,1.76.64,1.76,1.29,0,.9-.95,1.41-2.3,1.41l-2.43-.13c-1.62-.26-3.52-.26-9.06-.26l-5.54.13h-2.43l-2.03.13c-.81,0-1.22-.39-1.22-1.16,0-.9.14-.9,3.11-1.67,1.89-.51,2.57-1.54,2.57-4.5v-21.73c0-6.17-.81-9.26-3.25-12.34-2.84-3.73-7.7-5.91-12.84-5.91-4.46,0-8.65,1.8-11.9,5.01-1.62,1.67-2.16,2.96-2.16,5.27v23.79c-.27,8.61.81,9.77,9.33,10.8,1.49.13,2.16.51,2.16,1.29,0,.64-.68,1.16-1.49,1.16-.68,0-1.89-.13-3.38-.26-1.08-.13-2.16-.13-5.27-.13-10,0-11.62,0-15.81.39h-.27c-.95,0-1.35-.39-1.35-.9,0-.64.4-1.03,1.22-1.29,4.46-1.03,5.95-3.47,5.81-9.64v-26.75c-.27-7.2-.95-7.84-8.11-7.59-1.08,0-1.76-.39-1.76-1.16,0-.64.54-.9,1.62-1.16,6.08-1.41,7.57-2.06,14.6-5.4.68-.39,1.22-.51,1.62-.51.95,0,1.08.39,1.08,4.24v7.07Z"/><path class="cls-1" d="M460.34,131.26c0,15.43-12.09,27.13-28.03,27.13s-27.39-11.19-27.39-27c0-7.97,4.24-16.85,10.29-21.47,4.89-3.73,11.44-5.91,17.62-5.91,15.3,0,27.52,12.22,27.52,27.26ZM415.94,127.53c0,16.07,6.86,28.16,18.94,28.16,10.16,0,14.44-8.23,14.44-21.34,0-16.33-6.21-27.9-18.04-27.9-10.54,0-15.34,8.49-15.34,21.09Z"/><path class="cls-1" d="M198.18,129.97c0,15.43-12.09,27.13-28.03,27.13s-27.39-11.19-27.39-27c0-7.97,4.24-16.85,10.29-21.47,4.89-3.73,11.44-5.91,17.62-5.91,15.3,0,27.52,12.22,27.52,27.26ZM153.78,126.24c0,16.07,6.86,28.16,18.94,28.16,10.16,0,14.44-8.23,14.44-21.34,0-16.33-6.21-27.9-18.04-27.9-10.54,0-15.34,8.49-15.34,21.09Z"/><path class="cls-1" d="M505.95,89.31c-.13-11.44-2.55-15.17-10.46-16.2-1.88-.13-2.68-.51-2.68-1.41s.94-1.41,2.55-1.41c.54,0,1.88,0,3.35.13,1.21.13,2.95.13,4.96.13q5.5,0,15.29-.51c2.41-.13,4.69-.13,6.71-.13,9.39,0,15.96,1.41,21.46,4.76,5.9,3.6,9.52,9.51,9.52,15.94,0,4.24-1.48,8.36-4.29,11.7-2.01,2.31-2.28,2.57-7.24,5.66-.54.39-.94.77-.94,1.03,0,.51.13.51,3.35,1.29,10.06,2.57,16.63,10.93,16.63,21.22,0,15.69-13.14,26.49-32.45,26.49-2.41,0-5.77-.13-10.06-.51-4.96-.51-6.3-.51-10.19-.51-4.29,0-7.64.13-8.72.26-2.01.26-3.62.39-4.43.39-1.21,0-1.88-.51-1.88-1.41,0-.77.54-1.16,2.01-1.29,6.04-.77,7.11-3.21,7.51-17.1v-48.48ZM531.29,108.34c10.46,0,16.49-5.14,16.49-13.89,0-5.4-2.68-11.44-6.7-14.92-4.16-3.6-11.26-6.04-17.7-6.04-6.03,0-7.38,1.16-7.38,6.3v25.2c0,2.96.67,3.47,4.43,3.34h10.86ZM519.63,112.84c-3.09-.13-3.62.26-3.62,2.44v28.93c.13,5.78.13,5.91,1.07,7.07,1.74,2.06,7.11,3.21,15.55,3.21,7.24,0,11.67-1.29,15.29-4.37,4.02-3.47,6.57-9.39,6.57-15.43,0-8.61-4.56-16.2-11.67-19.42-4.43-2.06-6.57-2.44-13.95-2.44h-9.25Z"/><path class="cls-1" d="M587.96,115.09c5.13-7.59,10.11-11.44,14.55-11.44,2.08,0,3.05.51,7.2,3.86,1.52,1.16,1.8,1.54,1.8,2.31,0,1.41-4.16,6.04-5.4,6.04-.41,0-.97-.26-2.91-1.54-2.22-1.29-3.6-1.8-5.54-1.8-5.54,0-9.7,4.11-9.7,9.51v22.37c0,8.1,1.94,10.03,10.25,10.29,1.39.13,2.22.64,2.22,1.29,0,.77-.83,1.29-1.94,1.29-.28,0-1.52-.13-3.19-.26-.83-.13-4.99-.26-8.87-.26-4.16,0-9.01.13-10.25.39-1.25.13-2.22.26-2.49.26-.97,0-1.8-.51-1.8-1.29s.55-1.16,2.08-1.41c4.16-1.03,4.71-1.93,4.71-9.51v-24.82c0-4.63-.14-5.4-1.11-6.82-1.25-1.54-4.43-2.7-6.93-2.57l-1.8.13c-.83,0-1.52-.39-1.52-1.03,0-.9.69-1.41,2.49-1.54,4.99-.9,11.36-3.08,15.1-5.53.55-.26,1.25-.51,1.66-.51,1.11,0,1.39.64,1.39,3.34v9.26Z"/><path class="cls-1" d="M782.48,149.1c-4.25,3.34-5.49,4.24-7.27,5.4-3.84,2.31-9.06,3.86-13.45,3.86-13.59,0-23.88-11.19-23.88-26.1,0-15.69,12.63-28.29,28.27-28.29,5.9,0,10.57,1.29,16.33,4.5v-24.82c-.14-9.39-1.92-11.7-9.19-11.44-1.1,0-1.65-.39-1.65-1.16s.55-1.29,1.92-1.41c4.39-.51,10.84-2.83,15.78-5.79.41-.26.96-.39,1.37-.39.82,0,.82.13.96,2.44v78.44q0,4.89.55,6.04c.82,1.54,2.61,2.44,5.22,2.44.41,0,1.24,0,2.2-.13h.69c.82,0,1.24.39,1.24,1.03,0,1.03-.82,1.54-2.47,1.67-6.31.64-12.22,1.67-13.04,2.31-.82.39-1.65.64-2.06.64-1.1,0-1.51-.9-1.51-3.09v-6.17ZM782.48,120.81c0-4.5-.69-6.3-3.02-8.49-3.98-3.6-10.16-5.91-15.92-5.91-10.57,0-17.84,8.49-17.84,20.83,0,13.89,10.02,25.59,22.1,25.59,4.12,0,8.78-1.67,11.67-4.11,2.33-2.06,3.02-3.73,3.02-7.2v-20.7Z"/><path class="cls-1" d="M918.47,158.1c-3.48-2.57-4.42-4.11-4.42-7.07,0-4.63,2.81-9.26,7.63-12.47-5.89-3.34-8.7-8.36-8.7-15.3,0-11.19,8.44-19.29,20.08-19.29,4.42,0,10.44,1.67,14.06,3.86,1.87,1.16,2.41,1.41,3.21,1.41,1.74,0,5.36-1.41,7.23-2.83,1.21-1.12,1.05-1.2,2.41-4.37.21-.52.54-.77.94-.77.8,0,1.21.64,1.21,1.54,0,1.41-1.06,7.03-2.54,9.39-.97,1.55-2.01,2.54-4.15,3.34-.94.26-1.21.51-1.21,1.03,0,.26.14.77.27,1.29.27.9.54,3.73.54,5.01,0,10.03-9.24,18.13-20.62,18.13-1.74,0-5.09-.39-7.5-.77-.8-.13-1.47-.26-2.01-.26-2.81,0-5.89,3.6-5.89,6.81,0,2.31,1.74,4.24,4.69,5.01,2.01.51,4.82.77,11.11.9,11.11.26,14.73.77,17.94,2.44,3.62,1.8,5.62,5.01,5.62,9,0,9.64-11.38,17.23-25.84,17.23s-23.43-5.01-23.43-12.34c0-5.01,3.21-8.49,9.37-10.54v-.39ZM915.26,167.88c0,6.94,6.03,10.93,16.47,10.93,11.65,0,20.62-5.01,20.62-11.44,0-3.86-2.81-5.66-9.24-5.91-11.51-.39-18.61-1.03-21.69-1.93-4.28,1.8-6.16,4.37-6.16,8.36ZM922.28,120.81c0,10.16,5.96,17.74,13.33,17.74s10.1-5.78,10.1-14.66c0-10.41-6.13-17.77-13.9-17.77-6.56,0-9.53,6.45-9.53,14.68Z"/><path class="cls-1" d="M688.4,114c6.22-7.07,11.63-10.03,18.52-10.03s13.79,3.73,17.44,9.64c2.3,3.73,3.25,8.61,3.25,15.82v15.04c-.14,7.84.95,9.26,8.51,10.03,1.08.26,1.76.64,1.76,1.29,0,.9-.95,1.41-2.3,1.41l-2.43-.13c-1.62-.26-3.52-.26-9.06-.26l-5.54.13h-2.43l-2.03.13c-.81,0-1.22-.39-1.22-1.16,0-.9.14-.9,3.11-1.67,1.89-.51,2.57-1.54,2.57-4.5v-21.73c0-6.17-.81-9.26-3.25-12.34-2.84-3.73-7.7-5.91-12.84-5.91-4.46,0-8.65,1.8-11.9,5.01-1.62,1.67-2.16,2.96-2.16,5.27v23.79c-.27,8.61.81,9.77,9.33,10.8,1.49.13,2.16.51,2.16,1.29,0,.64-.68,1.16-1.49,1.16-.68,0-1.89-.13-3.38-.26-1.08-.13-2.16-.13-5.27-.13-10,0-11.62,0-15.81.39h-.27c-.95,0-1.35-.39-1.35-.9,0-.64.4-1.03,1.22-1.29,4.46-1.03,5.95-3.47,5.81-9.64v-26.75c-.27-7.2-.95-7.84-8.11-7.59-1.08,0-1.76-.39-1.76-1.16,0-.64.54-.9,1.62-1.16,6.08-1.41,7.57-2.06,14.6-5.4.68-.39,1.22-.51,1.62-.51.95,0,1.08.39,1.08,4.24v7.07Z"/><path class="cls-1" d="M859.45,114c6.22-7.07,11.63-10.03,18.52-10.03s13.79,3.73,17.44,9.64c2.3,3.73,3.25,8.61,3.25,15.82v15.04c-.14,7.84.95,9.26,8.51,10.03,1.08.26,1.76.64,1.76,1.29,0,.9-.95,1.41-2.3,1.41l-2.43-.13c-1.62-.26-3.52-.26-9.06-.26l-5.54.13h-2.43l-2.03.13c-.81,0-1.22-.39-1.22-1.16,0-.9.14-.9,3.11-1.67,1.89-.51,2.57-1.54,2.57-4.5v-21.73c0-6.17-.81-9.26-3.25-12.34-2.84-3.73-7.7-5.91-12.84-5.91-4.46,0-8.65,1.8-11.9,5.01-1.62,1.67-2.16,2.96-2.16,5.27v23.79c-.27,8.61.81,9.77,9.33,10.8,1.49.13,2.16.51,2.16,1.29,0,.64-.68,1.16-1.49,1.16-.68,0-1.89-.13-3.38-.26-1.08-.13-2.16-.13-5.27-.13-10,0-11.62,0-15.81.39h-.27c-.95,0-1.35-.39-1.35-.9,0-.64.4-1.03,1.22-1.29,4.46-1.03,5.95-3.47,5.81-9.64v-26.75c-.27-7.2-.95-7.84-8.11-7.59-1.08,0-1.76-.39-1.76-1.16,0-.64.54-.9,1.62-1.16,6.08-1.41,7.57-2.06,14.6-5.4.68-.39,1.22-.51,1.62-.51.95,0,1.08.39,1.08,4.24v7.07Z"/><path class="cls-1" d="M645.52,121.33c0-5.27-.41-6.94-2.05-9-2.18-2.83-6.69-4.76-10.92-4.76-6,0-9.14,2.57-9.14,7.2,0,1.41.14,2.31.95,4.63.27,1.03.41,1.67.41,2.06,0,.77-.55,1.16-1.23,1.16-1.23,0-3.82-.51-6-1.29-1.5-.51-2.32-1.54-2.32-2.7,0-2.7,2.73-7.2,5.73-9.77,3.68-2.96,9.55-4.89,15.01-4.89,6.69,0,13.51,2.7,16.51,6.43,1.5,1.93,2.18,4.63,2.18,8.1v24.69c0,5.53.27,6.69,1.77,8.62,1.09,1.41,3,2.19,4.91,2.19q.82,0,3-.51c.68,0,1.09.51,1.09,1.03-.14,1.41-5.32,3.34-9,3.34-4.23,0-6.69-1.67-9.96-6.3-7.1,4.89-12.01,6.81-17.87,6.81-8.46,0-13.78-4.5-13.78-11.7,0-6.17,3.96-10.54,12.55-13.63,4.37-1.54,9.28-2.57,18.15-3.86v-7.84ZM645.52,131.61c-5.59.51-10.23,1.67-15.01,3.86-4.64,2.06-6.82,5.27-6.82,9.64,0,5.66,3.96,9.39,9.82,9.39,3.96,0,8.32-1.8,10.37-4.24,1.23-1.41,1.64-2.96,1.64-6.17v-12.47Z"/><path class="cls-1" d="M824.45,146.14c-.14,6.56,1,7.59,8.87,8.23,1.43.26,2.43.77,2.43,1.54,0,.64-.71,1.16-1.86,1.16-.86,0-2.43-.13-4.58-.26-.71-.13-7.72-.26-9.3-.26-2.15,0-5.44.26-7.29.39-1.15.13-2,.26-2.57.26-1,0-1.86-.51-1.86-1.16,0-.77.43-1.03,2.57-1.67,3.43-1.54,4-2.83,4-7.84v-27.39c.14-6.81-1-8.23-6.58-8.23-1.29,0-1.86-.39-2-.9-.14-.77.57-1.16,3.58-2.06,2-.64,9.87-3.73,10.01-3.99,2.43-1.16,3.29-1.54,3.72-1.54q.86,0,.86,11.7v32.02ZM823.73,80.44q2.29,3.21,2.29,3.99c0,2.06-4.43,6.56-6.29,6.56s-6.01-4.5-6.01-6.56c0-.64.71-1.67,2.72-3.99,1.72-2.06,2.57-2.57,3.86-2.57s2,.64,3.43,2.57ZM826.02,83.96c0,3.87-2.75,7.02-6.15,7.02s-6.15-3.14-6.15-7.02,2.75-7.02,6.15-7.02,6.15,3.14,6.15,7.02Z"/><path class="cls-1" d="M1012.82,62.56l-17.27-12.7c-.58-.43-1.38-.43-1.97-.01l-17.41,12.5c-1.32.95-3.08-.35-2.57-1.89l6.74-20.35c.23-.69-.01-1.45-.6-1.88l-17.27-12.7c-1.31-.96-.62-3.03,1-3.02l21.43.12c.73,0,1.37-.46,1.6-1.15l6.74-20.35c.51-1.54,2.69-1.53,3.19.02l6.51,20.42c.22.69.86,1.16,1.59,1.17l21.43.12c1.62,0,2.29,2.09.97,3.04l-17.41,12.5c-.59.42-.84,1.18-.62,1.87l6.51,20.42c.49,1.55-1.28,2.82-2.59,1.86Z"/></svg>